HIERARCHY
ROOT Hips
{
	OFFSET 0.000000 0.000000 0.000000
	CHANNELS 6 Xposition Yposition Zposition Zrotation Yrotation Xrotation 
	JOINT LHipJoint
	{
		OFFSET 0.000000 0.000000 0.000000
		CHANNELS 3 Zrotation Yrotation Xrotation
		JOINT LeftUpLeg
		{
			OFFSET 1.363060 -1.794630 0.839290
			CHANNELS 3 Zrotation Yrotation Xrotation
			JOINT LeftLeg
			{
				OFFSET 2.448110 -6.726130 0.000000
				CHANNELS 3 Zrotation Yrotation Xrotation
				JOINT LeftFoot
				{
					OFFSET 2.562200 -7.039590 0.000000
					CHANNELS 3 Zrotation Yrotation Xrotation
					JOINT LeftToeBase
					{
						OFFSET 0.157640 -0.433110 2.322550
						CHANNELS 3 Zrotation Yrotation Xrotation
						End Site
						{
							OFFSET 0.000000 0.000000 0.000000
						}
					}
				}
			}
		}
	}
	JOINT RHipJoint
	{
		OFFSET 0.000000 0.000000 0.000000
		CHANNELS 3 Zrotation Yrotation Xrotation
		JOINT RightUpLeg
		{
			OFFSET -1.305520 -1.794630 0.839290
			CHANNELS 3 Zrotation Yrotation Xrotation
			JOINT RightLeg
			{
				OFFSET -2.542530 -6.985550 0.000000
				CHANNELS 3 Zrotation Yrotation Xrotation
				JOINT RightFoot
				{
					OFFSET -2.568260 -7.056230 0.000000
					CHANNELS 3 Zrotation Yrotation Xrotation
					JOINT RightToeBase
					{
						OFFSET -0.164730 -0.452590 2.363150
						CHANNELS 3 Zrotation Yrotation Xrotation
						End Site
						{
							OFFSET 0.000000 0.000000 0.000000
						}
					}
				}
			}
		}
	}
	JOINT LowerBack
	{
		OFFSET 0.000000 0.000000 0.000000
		CHANNELS 3 Zrotation Yrotation Xrotation
		JOINT Spine
		{
			OFFSET 0.028270 2.035590 -0.193380
			CHANNELS 3 Zrotation Yrotation Xrotation
			JOINT Spine1
			{
				OFFSET 0.056720 2.048850 -0.042750
				CHANNELS 3 Zrotation Yrotation Xrotation
				JOINT Neck
				{
					OFFSET 0.000000 0.000000 0.000000
					CHANNELS 3 Zrotation Yrotation Xrotation
					JOINT Neck1
					{
						OFFSET -0.054170 1.746240 0.172020
						CHANNELS 3 Zrotation Yrotation Xrotation
						JOINT Head
						{
							OFFSET 0.104070 1.761360 -0.123970
							CHANNELS 3 Zrotation Yrotation Xrotation
							End Site
							{
								OFFSET 0.000000 0.000000 0.000000
							}
						}
					}
				}
				JOINT LeftShoulder
				{
					OFFSET 0.000000 0.000000 0.000000
					CHANNELS 3 Zrotation Yrotation Xrotation
					JOINT LeftArm
					{
						OFFSET 3.362410 1.200890 -0.311210
						CHANNELS 3 Zrotation Yrotation Xrotation
						JOINT LeftForeArm
						{
							OFFSET 4.983000 -0.000000 -0.000000
							CHANNELS 3 Zrotation Yrotation Xrotation
							JOINT LeftHand
							{
								OFFSET 3.483560 -0.000000 -0.000000
								CHANNELS 3 Zrotation Yrotation Xrotation
								JOINT LeftFingerBase
								{
									OFFSET 0.000000 0.000000 0.000000
									CHANNELS 3 Zrotation Yrotation Xrotation
									JOINT LeftHandIndex1
									{
										OFFSET 0.715260 -0.000000 -0.000000
										CHANNELS 3 Zrotation Yrotation Xrotation
										End Site
										{
											OFFSET 0.000000 0.000000 0.000000
										}
									}
								}
								JOINT LThumb
								{
									OFFSET 0.000000 0.000000 0.000000
									CHANNELS 3 Zrotation Yrotation Xrotation
									End Site
									{
										OFFSET 0.000000 0.000000 0.000000
									}
								}
							}
						}
					}
				}
				JOINT RightShoulder
				{
					OFFSET 0.000000 0.000000 0.000000
					CHANNELS 3 Zrotation Yrotation Xrotation
					JOINT RightArm
					{
						OFFSET -3.136600 1.374050 -0.404650
						CHANNELS 3 Zrotation Yrotation Xrotation
						JOINT RightForeArm
						{
							OFFSET -5.241900 -0.000000 -0.000000
							CHANNELS 3 Zrotation Yrotation Xrotation
							JOINT RightHand
							{
								OFFSET -3.444170 -0.000000 -0.000000
								CHANNELS 3 Zrotation Yrotation Xrotation
								JOINT RightFingerBase
								{
									OFFSET 0.000000 0.000000 0.000000
									CHANNELS 3 Zrotation Yrotation Xrotation
									JOINT RightHandIndex1
									{
										OFFSET -0.622530 -0.000000 -0.000000
										CHANNELS 3 Zrotation Yrotation Xrotation
										End Site
										{
											OFFSET 0.000000 0.000000 0.000000
										}
									}
								}
								JOINT RThumb
								{
									OFFSET 0.000000 0.000000 0.000000
									CHANNELS 3 Zrotation Yrotation Xrotation
									End Site
									{
										OFFSET 0.000000 0.000000 0.000000
									}
								}
							}
						}
					}
				}
			}
		}
	}
}
MOTION
Frames: 10
Frame Time: 0.008333
4.803878 17.342357 1.083096 -7.638198 -88.888860 15.152123 -11.521753 3.711308 3.143972 -6.192752 12.691195 -10.035264 -2.364758 -1.188376 -2.363855 0.500098 3.773089 0.074690 0.617800 -0.000000 -28.706000 8.918829 -2.401270 3.492324 5.618001 -3.070354 -4.683225 2.444053 2.122749 -3.924543 -0.738527 -6.247848 -0.626657 -1.611400 0.000000 -36.319000 -1.822503 -4.990365 -8.567857 -0.549745 -5.074977 -4.864822 -4.724525 -5.050193 -3.402208 6.707818 -4.224057 5.564405 -1.667841 -0.318795 3.675412 0.000000 0.000000 0.000000 16.603560 4.852072 -7.570590 -43.414190 -64.957940 -29.760091 174.060365 -55.820797 179.543543 25.623172 -16.434081 -4.132351 -0.332429 1.332720 -0.000000 0.000000 0.000000 0.000000 0.000000 0.000000 0.000000 -3.800392 -10.587976 -7.051007 54.981801 52.542937 -23.943083 -174.642495 52.166436 179.649665 -20.542325 22.778822 -4.480425 0.178170 -1.311406 0.000000 0.000000 0.000000 0.000000 0.000000 0.000000 0.000000 
4.790578 17.343566 1.075413 -4.668341 -87.681687 12.340042 -11.362210 3.786933 3.384346 -6.169867 11.639397 -10.271110 -2.358611 -1.165327 -2.345017 0.469344 3.471572 0.207551 0.595000 0.000000 -28.844600 9.041604 -2.320894 3.397631 5.724969 -3.514063 -4.721260 2.374957 2.155481 -3.733981 -0.846629 -7.107727 -1.002717 -1.753800 -0.000000 -35.774600 -1.986262 -5.103164 -8.644169 -0.556546 -5.189720 -4.891420 -4.624356 -5.169868 -3.485314 6.619217 -4.345544 5.536282 -1.626948 -0.316284 3.670162 0.000000 0.000000 0.000000 16.602212 4.600958 -7.604786 -43.684860 -65.101522 -29.533783 174.015427 -55.959104 179.542964 25.605231 -16.450444 -4.132020 -0.326327 1.330810 -0.000000 0.000000 0.000000 0.000000 0.000000 0.000000 0.000000 -3.920945 -10.754247 -7.007555 53.570379 52.890032 -25.354227 -174.687147 52.504975 179.648454 -20.795433 23.124839 -4.605594 0.185042 -1.315469 0.000000 0.000000 0.000000 0.000000 0.000000 0.000000 0.000000 
4.777842 17.344782 1.068100 -2.976120 -86.348309 10.828501 -11.224856 3.835033 3.623425 -6.150528 10.535011 -10.513201 -2.350810 -1.153298 -2.350389 0.433557 3.158312 0.368313 0.572500 0.000000 -28.975400 9.141585 -2.262441 3.304419 5.830887 -3.970899 -4.775105 2.302325 2.181927 -3.569003 -0.964313 -8.014200 -1.380194 -1.899700 -0.000000 -35.203699 -2.181302 -5.236916 -8.713055 -0.563419 -5.319247 -4.919875 -4.514608 -5.304952 -3.587777 6.504125 -4.467322 5.509452 -1.574568 -0.313315 3.665467 0.000000 0.000000 0.000000 16.557821 4.325258 -7.637066 -43.959018 -65.291642 -29.314552 173.970890 -56.128054 179.542369 25.581550 -16.471841 -4.131799 -0.319442 1.328710 -0.000000 0.000000 0.000000 0.000000 0.000000 0.000000 0.000000 -4.110058 -10.915734 -6.968957 52.124456 53.220295 -26.878513 -174.720913 52.897301 179.646583 -21.114614 23.455569 -4.744561 0.192716 -1.318591 0.000000 0.000000 0.000000 0.000000 0.000000 0.000000 0.000000 
4.765863 17.345962 1.061287 -1.900784 -84.940911 9.958115 -11.099646 3.867448 3.860869 -6.131067 9.398684 -10.767635 -2.342962 -1.147454 -2.380077 0.394705 2.837217 0.552655 0.549300 -0.000001 -29.098100 9.228712 -2.213302 3.211548 5.939018 -4.428943 -4.842083 2.227885 2.206963 -3.434953 -1.089574 -8.953425 -1.746553 -2.046800 -0.000000 -34.611900 -2.385054 -5.371388 -8.774466 -0.568914 -5.446906 -4.951610 -4.398339 -5.438628 -3.711500 6.360592 -4.582441 5.484969 -1.510697 -0.309882 3.661617 0.000000 0.000000 0.000000 16.462587 4.032575 -7.665860 -44.240660 -65.536968 -29.101025 173.928129 -56.332989 179.541729 25.554547 -16.497757 -4.131986 -0.311854 1.326443 -0.000000 0.000000 0.000000 0.000000 0.000000 0.000000 0.000000 -4.370966 -11.053411 -6.935921 50.651630 53.522342 -28.505909 -174.744729 53.363122 179.644207 -21.490702 23.720862 -4.885335 0.200862 -1.319441 0.000000 0.000000 0.000000 0.000000 0.000000 0.000000 0.000000 
4.755116 17.347089 1.054973 -1.166985 -83.488714 9.450486 -10.981466 3.887601 4.093686 -6.108852 8.245516 -11.033988 -2.335663 -1.145919 -2.434296 0.353845 2.512883 0.759284 0.525400 -0.000000 -29.211700 9.308234 -2.168575 3.118539 6.050587 -4.878976 -4.920170 2.152566 2.231796 -3.335130 -1.222244 -9.915238 -2.093260 -2.193200 -0.000000 -34.008901 -2.585419 -5.495402 -8.826174 -0.572196 -5.562977 -4.987112 -4.277529 -5.561026 -3.857879 6.189718 -4.683211 5.463727 -1.435602 -0.306001 3.658834 0.000000 0.000000 0.000000 16.310686 3.726673 -7.689647 -44.534847 -65.846688 -28.890839 173.888613 -56.579376 179.540980 25.528857 -16.528290 -4.133280 -0.303717 1.324026 -0.000000 0.000000 0.000000 0.000000 0.000000 0.000000 0.000000 -4.701482 -11.150951 -6.908535 49.149992 53.786218 -30.226230 -174.761458 53.917396 179.641510 -21.907867 23.880846 -5.015328 0.209103 -1.317081 0.000000 0.000000 0.000000 0.000000 0.000000 0.000000 0.000000 
4.745892 17.348148 1.049135 -0.625129 -82.016425 9.152909 -10.867660 3.896718 4.316659 -6.083476 7.091134 -11.301359 -2.329270 -1.147776 -2.516820 0.311848 2.191520 0.989312 0.501300 0.000001 -29.315800 9.383885 -2.125907 3.022592 6.161946 -5.320951 -5.000653 2.077535 2.256470 -3.275948 -1.361983 -10.879670 -2.411155 -2.334200 -0.000001 -33.405000 -2.777793 -5.600517 -8.860889 -0.573570 -5.659085 -5.025694 -4.153648 -5.663673 -4.027982 5.995270 -4.760764 5.446424 -1.350259 -0.301717 3.657248 0.000000 0.000000 0.000000 16.100044 3.410502 -7.706719 -44.847297 -66.228347 -28.681422 173.853685 -56.872240 179.540062 25.511142 -16.561409 -4.136381 -0.295265 1.321412 -0.000000 0.000000 0.000000 0.000000 0.000000 0.000000 0.000000 -5.091568 -11.191999 -6.886040 47.604179 54.005531 -32.033423 -174.776768 54.574625 179.638716 -22.344213 23.912000 -5.123347 0.216982 -1.311019 0.000000 0.000000 0.000000 0.000000 0.000000 0.000000 0.000000 
4.738312 17.349169 1.043857 -0.235839 -80.531680 9.036150 -10.759248 3.894093 4.530622 -6.052049 5.952813 -11.605618 -2.325396 -1.152367 -2.600827 0.267568 1.859376 1.231819 0.473900 0.000000 -29.415200 9.453132 -2.086253 2.933089 6.283825 -5.727284 -5.107625 2.002933 2.281598 -3.245846 -1.509976 -11.864997 -2.704480 -2.476200 0.000000 -32.811000 -2.950090 -5.682590 -8.892791 -0.570641 -5.732595 -5.070067 -4.026566 -5.743686 -4.219511 5.775169 -4.805228 5.432331 -1.254689 -0.297025 3.656755 0.000000 0.000000 0.000000 15.824873 3.086177 -7.713738 -45.186764 -66.682769 -28.466063 173.825563 -57.210674 179.538892 25.507000 -16.605178 -4.144282 -0.286742 1.318874 -0.000000 0.000000 0.000000 0.000000 0.000000 0.000000 0.000000 -5.543681 -11.163462 -6.868526 46.009883 54.166271 -33.912350 -174.794551 55.337452 179.635855 -22.790986 23.827106 -5.208495 0.224330 -1.301738 0.000000 0.000000 0.000000 0.000000 0.000000 0.000000 0.000000 
4.733174 17.350119 1.038816 0.091188 -79.063260 8.988731 -10.654253 3.879991 4.724767 -6.019682 4.845096 -11.899455 -2.323266 -1.158857 -2.708474 0.222930 1.534850 1.496019 0.445900 0.000000 -29.504000 9.521234 -2.046570 2.836877 6.398727 -6.123237 -5.208653 1.930194 2.305112 -3.255644 -1.663625 -12.823646 -2.960676 -2.607700 -0.000000 -32.233401 -3.110831 -5.734808 -8.896084 -0.566568 -5.774375 -5.115978 -3.897052 -5.791961 -4.434462 5.538321 -4.809890 5.420960 -1.151716 -0.292035 3.657051 0.000000 0.000000 0.000000 15.491233 2.755781 -7.709924 -45.555318 -67.214684 -28.244651 173.804182 -57.596223 179.537432 25.525422 -16.649817 -4.156095 -0.278498 1.316110 -0.000000 0.000000 0.000000 0.000000 0.000000 0.000000 0.000000 -6.029753 -11.052465 -6.853790 44.328733 54.274082 -35.868809 -174.824898 56.214694 179.633198 -23.225846 23.646066 -5.268383 0.230797 -1.289678 0.000000 0.000000 0.000000 0.000000 0.000000 0.000000 0.000000 
4.730354 17.351086 1.034115 0.349727 -77.611218 9.032259 -10.554915 3.853706 4.902338 -5.983605 3.779984 -12.226139 -2.324333 -1.166763 -2.806764 0.176630 1.202287 1.768503 0.414200 0.000000 -29.588000 9.584083 -2.008914 2.744798 6.519565 -6.481393 -5.334190 1.859164 2.327486 -3.287289 -1.822809 -13.779586 -3.189156 -2.737700 0.000000 -31.681600 -3.247851 -5.756053 -8.889176 -0.558230 -5.784913 -5.166568 -3.763189 -5.808712 -4.669186 5.278254 -4.765872 5.410464 -1.040728 -0.286696 3.657775 0.000000 0.000000 0.000000 15.095168 2.419846 -7.691196 -45.960504 -67.814941 -28.010883 173.791206 -58.023262 179.535599 25.572965 -16.704184 -4.175205 -0.270813 1.313401 -0.000000 0.000000 0.000000 0.000000 0.000000 0.000000 0.000000 -6.559726 -10.850104 -6.841680 42.567937 54.313643 -37.885005 -174.870332 57.197104 179.630570 -23.660580 23.424558 -5.317402 0.236651 -1.276269 0.000000 0.000000 0.000000 0.000000 0.000000 0.000000 0.000000 
4.730556 17.352075 1.029370 0.587701 -76.196910 9.098995 -10.460485 3.815193 5.054526 -5.950355 2.768589 -12.546247 -2.327931 -1.175224 -2.911203 0.130260 0.876235 2.055921 0.380900 0.000000 -29.661300 9.645011 -1.970937 2.645765 6.630885 -6.821785 -5.459344 1.790358 2.346085 -3.340410 -1.983522 -14.698212 -3.385107 -2.859200 0.000000 -31.160100 -3.369593 -5.742599 -8.850254 -0.548236 -5.758304 -5.217753 -3.624515 -5.788037 -4.923653 4.999607 -4.671557 5.398347 -0.924349 -0.281080 3.658115 0.000000 0.000000 0.000000 14.643973 2.080151 -7.656802 -46.400927 -68.480142 -27.765455 173.786181 -58.488401 179.533412 25.653939 -16.760238 -4.200424 -0.263916 1.310495 -0.000000 0.000000 0.000000 0.000000 0.000000 0.000000 0.000000 -7.111453 -10.552493 -6.830299 40.706333 54.294589 -39.962967 -174.938722 58.281848 179.628056 -24.091298 23.224401 -5.368454 0.241880 -1.262771 0.000000 0.000000 0.000000 0.000000 0.000000 0.000000 0.000000 
